<svg width="43" height="139" viewBox="0 0 43 139" fill="none" xmlns="http://www.w3.org/2000/svg">
<path d="M40.0391 138.734C31.7422 136.391 25.4844 132.523 21.2656 127.133C17.0938 121.789 15.0078 114.711 15.0078 105.898V91.9062C15.0078 80.5156 10.0391 74.8203 0.101562 74.8203V64.625C10.0391 64.625 15.0078 58.9531 15.0078 47.6094V32.9844C15.1016 24.4062 17.1875 17.4922 21.2656 12.2422C25.3906 6.94531 31.6484 3.10156 40.0391 0.710938L42.7109 8.79688C32.9141 11.9375 28.0156 20.1172 28.0156 33.3359V47.5391C28.0156 58.1797 24.1016 65.5859 16.2734 69.7578C24.1016 73.9766 28.0156 81.4531 28.0156 92.1875V106.672C28.1562 119.562 33.0547 127.555 42.7109 130.648L40.0391 138.734Z" fill="white"/>
</svg>
