<svg width="44" height="139" viewBox="0 0 44 139" fill="none" xmlns="http://www.w3.org/2000/svg">
<path d="M0.9375 130.648C10.4531 127.602 15.375 119.844 15.7031 107.375V91.9062C15.7031 81.0781 19.9453 73.6953 28.4297 69.7578C19.9453 65.9141 15.7031 58.5312 15.7031 47.6094V33.3359C15.7031 20.1172 10.8047 11.9375 1.00781 8.79688L3.67969 0.710938C11.9766 3.05469 18.2109 6.875 22.3828 12.1719C26.5547 17.4219 28.6641 24.3828 28.7109 33.0547V47.8203C28.7109 59.0234 33.6797 64.625 43.6172 64.625V74.8203C33.6797 74.8203 28.7109 80.5156 28.7109 91.9062V106.109C28.7109 114.922 26.5781 121.977 22.3125 127.273C18.0938 132.57 11.8828 136.391 3.67969 138.734L0.9375 130.648Z" fill="white"/>
</svg>
